<svg width="27" height="26" viewBox="0 0 27 26" fill="none" xmlns="http://www.w3.org/2000/svg">
<circle cx="14.1667" cy="13.7222" r="8.5" fill="#D9D9D9"/>
<path d="M13.3333 0C6.15146 0 0.333332 5.81897 0.333332 13C0.333332 20.181 6.1523 26 13.3333 26C20.5152 26 26.3333 20.181 26.3333 13C26.3333 5.81897 20.5144 0 13.3333 0ZM19.7184 8.90626L17.5848 18.9607C17.4271 19.6736 17.0027 19.8464 16.4106 19.5109L13.1606 17.1155L11.593 18.6252C11.4202 18.798 11.2735 18.9448 10.938 18.9448L11.1686 15.6369L17.1914 10.1954C17.4539 9.96471 17.1335 9.83387 16.7871 10.0645L9.34359 14.7504L6.13553 13.749C5.43856 13.5292 5.42262 13.052 6.2823 12.7165L18.816 7.88303C19.398 7.67335 19.9063 8.02477 19.7176 8.90542L19.7184 8.90626Z" fill="#5AB3F0"/>
</svg>
