<svg width="32" height="32" viewBox="0 0 32 32" fill="none" xmlns="http://www.w3.org/2000/svg">
<path fill-rule="evenodd" clip-rule="evenodd" d="M7.99935 5.33329C6.52659 5.33329 5.33268 6.5272 5.33268 7.99996V24C5.33268 25.4727 6.52659 26.6666 7.99935 26.6666H23.9993C25.4721 26.6666 26.666 25.4727 26.666 24V12C26.666 10.5272 25.4721 9.33329 23.9993 9.33329H17.3327C16.0737 9.33329 14.8881 8.74052 14.1327 7.73329L12.7327 5.86663C12.4809 5.53088 12.0857 5.33329 11.666 5.33329H7.99935ZM2.66602 7.99996C2.66602 5.05444 5.05383 2.66663 7.99935 2.66663H11.666C12.925 2.66663 14.1106 3.2594 14.866 4.26663L16.266 6.13329C16.5178 6.46903 16.913 6.66663 17.3327 6.66663H23.9993C26.9449 6.66663 29.3327 9.05444 29.3327 12V24C29.3327 26.9455 26.9449 29.3333 23.9993 29.3333H7.99935C5.05383 29.3333 2.66602 26.9455 2.66602 24V7.99996Z" fill="#73B3FF"/>
<path fill-rule="evenodd" clip-rule="evenodd" d="M20.9113 15.0272C21.4485 15.5309 21.4758 16.3747 20.9721 16.9119L15.9721 22.2452C15.4945 22.7547 14.7046 22.8093 14.1614 22.3704L11.1614 19.9461C10.5886 19.4833 10.4995 18.6438 10.9623 18.071C11.4252 17.4983 12.2647 17.4092 12.8374 17.872L14.8739 19.5177L19.0267 15.088C19.5303 14.5508 20.3741 14.5236 20.9113 15.0272Z" fill="#73B3FF"/>
</svg>
