<svg width="7" height="12" viewBox="0 0 7 12" fill="none" xmlns="http://www.w3.org/2000/svg">
<path d="M6.15874 11.0792C6.24759 10.989 6.31808 10.8818 6.36617 10.7638C6.41427 10.6457 6.43903 10.5192 6.43903 10.3914C6.43903 10.2637 6.41427 10.1371 6.36617 10.0191C6.31808 9.9011 6.24759 9.79389 6.15874 9.70364L2.43999 5.91827L6.15873 2.13291C6.33794 1.95049 6.43862 1.70308 6.43862 1.4451C6.43862 1.18713 6.33794 0.939713 6.15873 0.757295C5.97953 0.574878 5.73647 0.472399 5.48303 0.472399C5.2296 0.472399 4.98654 0.574878 4.80733 0.757295L0.408095 5.23535C0.319245 5.3256 0.248754 5.43281 0.200658 5.55083C0.152562 5.66886 0.127806 5.79538 0.127806 5.92315C0.127806 6.05092 0.152562 6.17744 0.200658 6.29547C0.248754 6.41349 0.319245 6.5207 0.408095 6.61096L4.80734 11.089C5.17154 11.4597 5.78494 11.4597 6.15874 11.0792Z" fill="#73B3FF"/>
</svg>
