<svg width="11" height="8" viewBox="0 0 11 8" fill="none" xmlns="http://www.w3.org/2000/svg">
<path d="M8.65291 0.255056C8.82995 0.089653 9.06555 -0.00178848 9.31 2.65108e-05C9.55444 0.0018415 9.78861 0.0967713 9.96308 0.264784C10.1376 0.432797 10.2387 0.660752 10.2452 0.900549C10.2516 1.14034 10.1629 1.37323 9.99771 1.55005L4.98296 7.70436C4.89673 7.79551 4.79266 7.86865 4.67696 7.91942C4.56127 7.97018 4.43633 7.99754 4.30962 7.99984C4.1829 8.00214 4.05702 7.97935 3.93949 7.93282C3.82196 7.88629 3.7152 7.81698 3.62559 7.72903L0.300016 4.46564C0.207404 4.38096 0.133123 4.27884 0.0816028 4.16537C0.0300829 4.05191 0.00237981 3.92942 0.000146697 3.80522C-0.00208642 3.68102 0.0211962 3.55765 0.0686051 3.44248C0.116014 3.3273 0.186578 3.22267 0.276088 3.13483C0.365598 3.047 0.472219 2.97775 0.589592 2.93123C0.706965 2.88471 0.832685 2.86186 0.959251 2.86405C1.08582 2.86624 1.21064 2.89343 1.32627 2.94398C1.44189 2.99454 1.54596 3.06743 1.63225 3.15831L4.26406 5.73967L8.62903 0.28219C8.63688 0.272694 8.64528 0.263635 8.65416 0.255056H8.65291Z" fill="#73B3FF"/>
</svg>
