<svg width="17" height="20" viewBox="0 0 17 20" fill="none" xmlns="http://www.w3.org/2000/svg">
<path d="M8.5 3.5999C6.91775 3.5999 5.37103 4.06909 4.05544 4.94814C2.73985 5.8272 1.71447 7.07662 1.10897 8.53843C0.503466 10.0002 0.34504 11.6088 0.653721 13.1606C0.962403 14.7125 1.72433 16.1379 2.84315 17.2568C3.96197 18.3756 5.38743 19.1375 6.93928 19.4462C8.49113 19.7549 10.0997 19.5964 11.5615 18.9909C13.0233 18.3854 14.2727 17.3601 15.1518 16.0445C16.0308 14.7289 16.5 13.1821 16.5 11.5999C16.4958 9.47947 15.6516 7.44709 14.1522 5.94772C12.6528 4.44834 10.6204 3.60413 8.5 3.5999ZM8.5 17.6799C7.29749 17.6799 6.12199 17.3233 5.12214 16.6552C4.12229 15.9872 3.343 15.0376 2.88282 13.9266C2.42263 12.8156 2.30223 11.5932 2.53683 10.4138C2.77143 9.23435 3.35049 8.15099 4.20079 7.30069C5.0511 6.45039 6.13445 5.87133 7.31385 5.63673C8.49326 5.40213 9.71574 5.52253 10.8267 5.98271C11.9377 6.44289 12.8873 7.22218 13.5553 8.22203C14.2234 9.22188 14.58 10.3974 14.58 11.5999C14.5779 13.2118 13.9366 14.757 12.7969 15.8968C11.6571 17.0365 10.1119 17.6778 8.5 17.6799ZM11.892 8.2079C11.9813 8.2964 12.0521 8.40171 12.1004 8.51773C12.1488 8.63376 12.1737 8.75821 12.1737 8.8839C12.1737 9.00959 12.1488 9.13404 12.1004 9.25007C12.0521 9.36609 11.9813 9.4714 11.892 9.5599L9.18 12.2799C8.99884 12.4587 8.75454 12.559 8.5 12.559C8.24546 12.559 8.00116 12.4587 7.82 12.2799C7.7305 12.1907 7.65949 12.0847 7.61104 11.968C7.56259 11.8514 7.53764 11.7262 7.53764 11.5999C7.53764 11.4736 7.56259 11.3484 7.61104 11.2318C7.65949 11.1151 7.7305 11.0091 7.82 10.9199L10.54 8.2079C10.6285 8.11865 10.7338 8.0478 10.8498 7.99946C10.9659 7.95111 11.0903 7.92622 11.216 7.92622C11.3417 7.92622 11.4661 7.95111 11.5822 7.99946C11.6982 8.0478 11.8035 8.11865 11.892 8.2079ZM5.62 1.3599C5.62 1.10529 5.72115 0.861115 5.90118 0.68108C6.08121 0.501045 6.32539 0.399902 6.58 0.399902L10.42 0.399902C10.6746 0.399902 10.9188 0.501045 11.0988 0.68108C11.2789 0.861115 11.38 1.10529 11.38 1.3599C11.38 1.61451 11.2789 1.85869 11.0988 2.03872C10.9188 2.21876 10.6746 2.3199 10.42 2.3199H6.58C6.32539 2.3199 6.08121 2.21876 5.90118 2.03872C5.72115 1.85869 5.62 1.61451 5.62 1.3599Z" fill="white"/>
</svg>
