<svg width="14" height="18" viewBox="0 0 14 18" fill="none" xmlns="http://www.w3.org/2000/svg">
<path d="M1.37502 15.25H12.625C12.8625 15.2501 13.0912 15.3403 13.2648 15.5025C13.4383 15.6646 13.5439 15.8866 13.5601 16.1236C13.5762 16.3606 13.5019 16.5949 13.352 16.7791C13.2021 16.9634 12.9878 17.0839 12.7525 17.1162L12.625 17.125H1.37502C1.13749 17.1249 0.908843 17.0347 0.73528 16.8725C0.561716 16.7104 0.456177 16.4884 0.439987 16.2514C0.423797 16.0144 0.498163 15.7801 0.64806 15.5959C0.797956 15.4116 1.01221 15.2911 1.24752 15.2587L1.37502 15.25H12.625H1.37502ZM6.87252 0.25875L7.00002 0.25C7.22657 0.25001 7.44545 0.332053 7.61618 0.480959C7.78692 0.629864 7.89796 0.835558 7.92877 1.06L7.93752 1.1875V10.7975L10.7563 7.98C10.9152 7.82109 11.126 7.72458 11.3502 7.70806C11.5743 7.69154 11.797 7.75611 11.9775 7.89L12.0825 7.98C12.2414 8.13897 12.3379 8.34974 12.3545 8.5739C12.371 8.79807 12.3064 9.02071 12.1725 9.20125L12.0825 9.30625L7.66252 13.725C7.50378 13.8838 7.29334 13.9803 7.06946 13.9971C6.84557 14.0138 6.62311 13.9496 6.44252 13.8162L6.33752 13.725L1.91752 9.30625C1.74978 9.13897 1.65159 8.91439 1.64268 8.67766C1.63378 8.44093 1.71483 8.2096 1.86953 8.0302C2.02424 7.85079 2.24113 7.7366 2.47659 7.7106C2.71206 7.68459 2.94864 7.74868 3.13877 7.89L3.24377 7.98L6.06252 10.8V1.1875C6.06253 0.960953 6.14457 0.742072 6.29348 0.571337C6.44238 0.400601 6.64808 0.28956 6.87252 0.25875L7.00002 0.25L6.87252 0.25875Z" fill="white"/>
</svg>
