<svg width="9" height="10" viewBox="0 0 9 10" fill="none" xmlns="http://www.w3.org/2000/svg">
<path d="M7.96932 4.52553C7.75233 4.03716 7.4369 3.59883 7.04275 3.23795L6.7175 2.93952C6.70645 2.92967 6.69316 2.92268 6.67879 2.91916C6.66441 2.91564 6.64939 2.9157 6.63504 2.91934C6.6207 2.92299 6.60747 2.93009 6.59651 2.94004C6.58555 2.94999 6.5772 2.96248 6.5722 2.97641L6.4269 3.39331C6.33636 3.65485 6.16983 3.92198 5.93399 4.18464C5.91835 4.2014 5.90046 4.20587 5.88817 4.20699C5.87587 4.20811 5.85687 4.20587 5.84011 4.19022C5.82446 4.17681 5.81664 4.15669 5.81775 4.13657C5.85911 3.46372 5.65792 2.70481 5.21755 1.87883C4.85318 1.19257 4.34687 0.657191 3.71425 0.283881L3.25264 0.0122814C3.19229 -0.0234848 3.11517 0.0234583 3.11852 0.093873L3.14311 0.630366C3.15988 0.99697 3.1174 1.3211 3.01681 1.59047C2.89386 1.92019 2.71727 2.22643 2.49149 2.50139C2.33437 2.69247 2.15629 2.86531 1.96059 3.01664C1.48926 3.37896 1.10602 3.84322 0.839542 4.37464C0.573725 4.9107 0.435261 5.5009 0.434937 6.09925C0.434937 6.6268 0.538882 7.13758 0.744538 7.61931C0.943115 8.08312 1.22968 8.50405 1.5884 8.85883C1.95053 9.2165 2.37078 9.49815 2.8391 9.69375C3.32418 9.89717 3.83832 10 4.36922 10C4.90013 10 5.41427 9.89717 5.89935 9.69487C6.36651 9.50042 6.79132 9.21683 7.15005 8.85995C7.51218 8.50229 7.79607 8.08427 7.9939 7.62043C8.19925 7.14002 8.30459 6.62282 8.30351 6.10036C8.30351 5.55493 8.19174 5.02514 7.96932 4.52553Z" fill="#77C75B"/>
</svg>
