<svg width="36" height="36" viewBox="0 0 36 36" fill="none" xmlns="http://www.w3.org/2000/svg">
<circle cx="18" cy="18" r="18" fill="#73B3FF"/>
<path d="M21.035 13.9037L15.1803 14.606L14.9713 15.5361L16.1232 15.7363C16.8724 15.9086 17.0215 16.1661 16.8589 16.8832L14.9713 25.3641C14.4776 27.5562 15.2423 28.5883 17.037 28.5883C18.431 28.5883 20.0456 27.9731 20.7794 27.1263L21.004 26.109C20.4948 26.5389 19.7455 26.7112 19.2519 26.7112C18.5491 26.7112 18.2954 26.2387 18.4736 25.4068L21.035 13.9037ZM21.2111 8.79885C21.2111 9.44754 20.9419 10.0697 20.4626 10.5283C19.9834 10.987 19.3333 11.2447 18.6555 11.2447C17.9778 11.2447 17.3277 10.987 16.8485 10.5283C16.3692 10.0697 16.1 9.44754 16.1 8.79885C16.1 8.15016 16.3692 7.52804 16.8485 7.06935C17.3277 6.61066 17.9778 6.35297 18.6555 6.35297C19.3333 6.35297 19.9834 6.61066 20.4626 7.06935C20.9419 7.52804 21.2111 8.15016 21.2111 8.79885Z" fill="white"/>
</svg>
