<svg width="18" height="16" viewBox="0 0 18 16" fill="none" xmlns="http://www.w3.org/2000/svg">
<path d="M7.19321 4.17778C7.11292 4.25913 7.04918 4.35602 7.00567 4.46283C6.96217 4.56964 6.93976 4.68424 6.93976 4.8C6.93976 4.91576 6.96217 5.03036 7.00567 5.13717C7.04918 5.24398 7.11292 5.34087 7.19321 5.42222L8.83988 7.11111H0.866545C0.389878 7.11111 -0.00012207 7.51111 -0.00012207 8C-0.00012207 8.48889 0.389878 8.88889 0.866545 8.88889H8.83988L7.19321 10.5778C7.11292 10.6591 7.04918 10.756 7.00567 10.8628C6.96217 10.9696 6.93976 11.0842 6.93976 11.2C6.93976 11.3158 6.96217 11.4304 7.00567 11.5372C7.04918 11.644 7.11292 11.7409 7.19321 11.8222C7.53121 12.1689 8.06854 12.1689 8.40654 11.8222L11.5179 8.63111C11.5982 8.54888 11.662 8.4512 11.7055 8.34367C11.7489 8.23613 11.7713 8.12086 11.7713 8.00445C11.7713 7.88803 11.7489 7.77276 11.7055 7.66522C11.662 7.55769 11.5982 7.46001 11.5179 7.37778L8.40654 4.17778C8.32722 4.09543 8.23276 4.03005 8.12862 3.98543C8.02448 3.94081 7.91274 3.91783 7.79988 3.91783C7.68702 3.91783 7.57528 3.94081 7.47114 3.98543C7.367 4.03005 7.27253 4.09543 7.19321 4.17778ZM15.5999 14.2222H9.53321C9.05654 14.2222 8.66654 14.6222 8.66654 15.1111C8.66654 15.6 9.05654 16 9.53321 16H15.5999C16.5532 16 17.3332 15.2 17.3332 14.2222V1.77778C17.3332 0.8 16.5532 0 15.5999 0H9.53321C9.05654 0 8.66654 0.4 8.66654 0.888889C8.66654 1.37778 9.05654 1.77778 9.53321 1.77778H15.5999V14.2222Z" fill="#73B3FF"/>
</svg>
