<svg width="36" height="36" viewBox="0 0 36 36" fill="none" xmlns="http://www.w3.org/2000/svg">
<rect width="36" height="36" rx="18" fill="#73B3FF"/>
<path d="M16.9163 15.1333C16.8572 15.1943 16.8103 15.267 16.7783 15.3471C16.7463 15.4272 16.7298 15.5132 16.7298 15.6C16.7298 15.6868 16.7463 15.7728 16.7783 15.8529C16.8103 15.933 16.8572 16.0057 16.9163 16.0667L18.1275 17.3333H12.2625C11.9119 17.3333 11.625 17.6333 11.625 18C11.625 18.3667 11.9119 18.6667 12.2625 18.6667H18.1275L16.9163 19.9333C16.8572 19.9943 16.8103 20.067 16.7783 20.1471C16.7463 20.2272 16.7298 20.3132 16.7298 20.4C16.7298 20.4868 16.7463 20.5728 16.7783 20.6529C16.8103 20.733 16.8572 20.8057 16.9163 20.8667C17.1649 21.1267 17.5601 21.1267 17.8087 20.8667L20.0974 18.4733C20.1565 18.4117 20.2034 18.3384 20.2354 18.2577C20.2673 18.1771 20.2838 18.0906 20.2838 18.0033C20.2838 17.916 20.2673 17.8296 20.2354 17.7489C20.2034 17.6683 20.1565 17.595 20.0974 17.5333L17.8087 15.1333C17.7504 15.0716 17.6809 15.0225 17.6043 14.9891C17.5277 14.9556 17.4455 14.9384 17.3625 14.9384C17.2795 14.9384 17.1973 14.9556 17.1207 14.9891C17.0441 15.0225 16.9746 15.0716 16.9163 15.1333V15.1333ZM23.1 22.6667H18.6375C18.2869 22.6667 18 22.9667 18 23.3333C18 23.7 18.2869 24 18.6375 24H23.1C23.8012 24 24.375 23.4 24.375 22.6667V13.3333C24.375 12.6 23.8012 12 23.1 12H18.6375C18.2869 12 18 12.3 18 12.6667C18 13.0333 18.2869 13.3333 18.6375 13.3333H23.1V22.6667Z" fill="white"/>
</svg>
