<svg width="18" height="16" viewBox="0 0 18 16" fill="none" xmlns="http://www.w3.org/2000/svg">
<path d="M7.69333 4.17778C7.61305 4.25913 7.5493 4.35602 7.5058 4.46283C7.46229 4.56964 7.43989 4.68424 7.43989 4.8C7.43989 4.91576 7.46229 5.03036 7.5058 5.13717C7.5493 5.24398 7.61305 5.34087 7.69333 5.42222L9.34 7.11111H1.36667C0.89 7.11111 0.5 7.51111 0.5 8C0.5 8.48889 0.89 8.88889 1.36667 8.88889H9.34L7.69333 10.5778C7.61305 10.6591 7.5493 10.756 7.5058 10.8628C7.46229 10.9696 7.43989 11.0842 7.43989 11.2C7.43989 11.3158 7.46229 11.4304 7.5058 11.5372C7.5493 11.644 7.61305 11.7409 7.69333 11.8222C8.03133 12.1689 8.56867 12.1689 8.90667 11.8222L12.018 8.63111C12.0983 8.54888 12.1621 8.4512 12.2056 8.34367C12.2491 8.23613 12.2715 8.12086 12.2715 8.00445C12.2715 7.88803 12.2491 7.77276 12.2056 7.66522C12.1621 7.55769 12.0983 7.46001 12.018 7.37778L8.90667 4.17778C8.82735 4.09543 8.73288 4.03005 8.62874 3.98543C8.5246 3.94081 8.41286 3.91783 8.3 3.91783C8.18714 3.91783 8.0754 3.94081 7.97126 3.98543C7.86712 4.03005 7.77265 4.09543 7.69333 4.17778ZM16.1 14.2222H10.0333C9.55667 14.2222 9.16667 14.6222 9.16667 15.1111C9.16667 15.6 9.55667 16 10.0333 16H16.1C17.0533 16 17.8333 15.2 17.8333 14.2222V1.77778C17.8333 0.8 17.0533 0 16.1 0H10.0333C9.55667 0 9.16667 0.4 9.16667 0.888889C9.16667 1.37778 9.55667 1.77778 10.0333 1.77778H16.1V14.2222Z" fill="white"/>
</svg>
