<svg width="14" height="12" viewBox="0 0 14 12" fill="none" xmlns="http://www.w3.org/2000/svg">
<path d="M5.91625 3.13333C5.85719 3.19435 5.8103 3.26702 5.7783 3.34712C5.7463 3.42723 5.72982 3.51318 5.72982 3.6C5.72982 3.68682 5.7463 3.77277 5.7783 3.85288C5.8103 3.93298 5.85719 4.00565 5.91625 4.06667L7.1275 5.33333H1.2625C0.911875 5.33333 0.625 5.63333 0.625 6C0.625 6.36667 0.911875 6.66667 1.2625 6.66667H7.1275L5.91625 7.93333C5.85719 7.99435 5.8103 8.06702 5.7783 8.14712C5.7463 8.22723 5.72982 8.31318 5.72982 8.4C5.72982 8.48682 5.7463 8.57277 5.7783 8.65288C5.8103 8.73298 5.85719 8.80565 5.91625 8.86667C6.16488 9.12667 6.56012 9.12667 6.80875 8.86667L9.09737 6.47333C9.15647 6.41166 9.20336 6.3384 9.23535 6.25775C9.26734 6.1771 9.28381 6.09065 9.28381 6.00333C9.28381 5.91602 9.26734 5.82957 9.23535 5.74892C9.20336 5.66827 9.15647 5.59501 9.09737 5.53333L6.80875 3.13333C6.7504 3.07157 6.68092 3.02254 6.60431 2.98907C6.52771 2.95561 6.44552 2.93837 6.3625 2.93837C6.27948 2.93837 6.19729 2.95561 6.12069 2.98907C6.04408 3.02254 5.9746 3.07157 5.91625 3.13333V3.13333ZM12.1 10.6667H7.6375C7.28687 10.6667 7 10.9667 7 11.3333C7 11.7 7.28687 12 7.6375 12H12.1C12.8012 12 13.375 11.4 13.375 10.6667V1.33333C13.375 0.6 12.8012 0 12.1 0H7.6375C7.28687 0 7 0.3 7 0.666667C7 1.03333 7.28687 1.33333 7.6375 1.33333H12.1V10.6667Z" fill="white"/>
</svg>
