<svg width="8" height="10" viewBox="0 0 8 10" fill="none" xmlns="http://www.w3.org/2000/svg">
<path fill-rule="evenodd" clip-rule="evenodd" d="M3.64545 9.85286L3.99994 9.49986L3.64545 9.85286ZM3.99994 9.49986L4.35394 9.85286C4.30748 9.8995 4.25228 9.9365 4.19149 9.96175C4.1307 9.987 4.06552 10 3.99969 10C3.93387 10 3.86869 9.987 3.8079 9.96175C3.74711 9.9365 3.6919 9.8995 3.64545 9.85286L3.64245 9.84936L3.63395 9.84086L3.60295 9.80936C3.4267 9.6278 3.25334 9.44344 3.08296 9.25637C2.65516 8.78761 2.24553 8.30259 1.85497 7.80239C1.40898 7.2274 0.952986 6.5774 0.606491 5.93541C0.267496 5.30592 0 4.62393 0 3.99994C0 1.73047 1.79597 0 3.99994 0C6.20391 0 7.99988 1.73047 7.99988 3.99994C7.99988 4.62393 7.73239 5.30592 7.39339 5.93491C7.0469 6.5779 6.5914 7.2274 6.14491 7.80239C5.59861 8.50219 5.01511 9.17215 4.39694 9.80936L4.36594 9.84086L4.35744 9.84936L4.35444 9.85236L3.99994 9.49986ZM3.99994 5.49992C4.39776 5.49992 4.77929 5.34189 5.06059 5.06059C5.34189 4.77929 5.49992 4.39776 5.49992 3.99994C5.49992 3.60212 5.34189 3.2206 5.06059 2.9393C4.77929 2.658 4.39776 2.49996 3.99994 2.49996C3.60212 2.49996 3.2206 2.658 2.9393 2.9393C2.658 3.2206 2.49996 3.60212 2.49996 3.99994C2.49996 4.39776 2.658 4.77929 2.9393 5.06059C3.2206 5.34189 3.60212 5.49992 3.99994 5.49992Z" fill="#494462"/>
</svg>
