<svg width="8" height="10" viewBox="0 0 8 10" fill="none" xmlns="http://www.w3.org/2000/svg">
<path fill-rule="evenodd" clip-rule="evenodd" d="M3.64545 9.85287L3.99994 9.49988L3.64545 9.85287ZM3.99994 9.49988L4.35394 9.85287C4.30748 9.89951 4.25228 9.93652 4.19149 9.96177C4.1307 9.98702 4.06552 10 3.99969 10C3.93387 10 3.86869 9.98702 3.8079 9.96177C3.74711 9.93652 3.6919 9.89951 3.64545 9.85287L3.64245 9.84937L3.63395 9.84087L3.60295 9.80937C3.4267 9.62781 3.25334 9.44346 3.08296 9.25638C2.65516 8.78762 2.24553 8.30261 1.85497 7.8024C1.40898 7.22741 0.952986 6.57742 0.606491 5.93543C0.267496 5.30594 0 4.62395 0 3.99996C0 1.73049 1.79597 1.52588e-05 3.99994 1.52588e-05C6.20391 1.52588e-05 7.99988 1.73049 7.99988 3.99996C7.99988 4.62395 7.73239 5.30594 7.39339 5.93493C7.0469 6.57792 6.5914 7.22741 6.14491 7.8024C5.59861 8.50221 5.01511 9.17216 4.39694 9.80937L4.36594 9.84087L4.35744 9.84937L4.35444 9.85237L3.99994 9.49988ZM3.99994 5.49994C4.39776 5.49994 4.77929 5.3419 5.06059 5.0606C5.34189 4.7793 5.49992 4.39778 5.49992 3.99996C5.49992 3.60214 5.34189 3.22061 5.06059 2.93931C4.77929 2.65801 4.39776 2.49998 3.99994 2.49998C3.60212 2.49998 3.2206 2.65801 2.9393 2.93931C2.658 3.22061 2.49996 3.60214 2.49996 3.99996C2.49996 4.39778 2.658 4.7793 2.9393 5.0606C3.2206 5.3419 3.60212 5.49994 3.99994 5.49994Z" fill="#494462"/>
</svg>
