<svg width="11" height="9" viewBox="0 0 11 9" fill="none" xmlns="http://www.w3.org/2000/svg">
<path d="M2.30931 0C1.86728 0 1.44336 0.175595 1.13079 0.488155C0.818234 0.800716 0.642639 1.22464 0.642639 1.66667V1.83417L5.64264 4.52667L10.6426 1.835V1.66667C10.6426 1.22464 10.467 0.800716 10.1545 0.488155C9.84192 0.175595 9.418 0 8.97597 0H2.30931ZM10.6426 2.78083L5.84014 5.36667C5.77944 5.39934 5.71158 5.41645 5.64264 5.41645C5.5737 5.41645 5.50584 5.39934 5.44514 5.36667L0.642639 2.78083V6.66667C0.642639 7.10869 0.818234 7.53262 1.13079 7.84518C1.44336 8.15774 1.86728 8.33333 2.30931 8.33333H8.97597C9.418 8.33333 9.84192 8.15774 10.1545 7.84518C10.467 7.53262 10.6426 7.10869 10.6426 6.66667V2.78083Z" fill="#73B3FF"/>
</svg>
