<svg width="10" height="10" viewBox="0 0 10 10" fill="none" xmlns="http://www.w3.org/2000/svg">
<path d="M1.66667 0.833374C1.22464 0.833374 0.800716 1.00897 0.488155 1.32153C0.175595 1.63409 0 2.05801 0 2.50004V2.66754L5 5.36004L10 2.66837V2.50004C10 2.05801 9.8244 1.63409 9.51184 1.32153C9.19928 1.00897 8.77536 0.833374 8.33333 0.833374H1.66667ZM10 3.61421L5.1975 6.20004C5.1368 6.23272 5.06894 6.24982 5 6.24982C4.93106 6.24982 4.8632 6.23272 4.8025 6.20004L0 3.61421V7.50004C0 7.94207 0.175595 8.36599 0.488155 8.67855C0.800716 8.99111 1.22464 9.16671 1.66667 9.16671H8.33333C8.77536 9.16671 9.19928 8.99111 9.51184 8.67855C9.8244 8.36599 10 7.94207 10 7.50004V3.61421Z" fill="#77C75B"/>
</svg>
