<svg width="10" height="9" viewBox="0 0 10 9" fill="none" xmlns="http://www.w3.org/2000/svg">
<path d="M1.66667 0C1.22464 0 0.800716 0.175595 0.488155 0.488155C0.175595 0.800716 0 1.22464 0 1.66667V1.83417L5 4.52667L10 1.835V1.66667C10 1.22464 9.8244 0.800716 9.51184 0.488155C9.19928 0.175595 8.77536 0 8.33333 0H1.66667ZM10 2.78083L5.1975 5.36667C5.1368 5.39934 5.06894 5.41645 5 5.41645C4.93106 5.41645 4.8632 5.39934 4.8025 5.36667L0 2.78083V6.66667C0 7.10869 0.175595 7.53262 0.488155 7.84518C0.800716 8.15774 1.22464 8.33333 1.66667 8.33333H8.33333C8.77536 8.33333 9.19928 8.15774 9.51184 7.84518C9.8244 7.53262 10 7.10869 10 6.66667V2.78083Z" fill="#494462"/>
</svg>
