<svg width="38" height="38" viewBox="0 0 38 38" fill="none" xmlns="http://www.w3.org/2000/svg">
<circle cx="19" cy="19" r="19" fill="#77C75B"/>
<path d="M4.07547 19.968V18.96H7.67547V19.968H4.07547ZM11.7965 23.43C11.3525 23.43 10.9385 23.34 10.5545 23.16C10.1745 22.976 9.84853 22.724 9.57653 22.404C9.30453 22.08 9.11053 21.708 8.99453 21.288L10.2005 20.964C10.2685 21.22 10.3845 21.442 10.5485 21.63C10.7165 21.818 10.9125 21.964 11.1365 22.068C11.3605 22.168 11.5925 22.218 11.8325 22.218C12.1485 22.218 12.4345 22.142 12.6905 21.99C12.9505 21.838 13.1545 21.634 13.3025 21.378C13.4545 21.122 13.5305 20.84 13.5305 20.532C13.5305 20.216 13.4525 19.93 13.2965 19.674C13.1445 19.418 12.9385 19.216 12.6785 19.068C12.4225 18.916 12.1405 18.84 11.8325 18.84C11.4805 18.84 11.1825 18.91 10.9385 19.05C10.6945 19.19 10.5045 19.352 10.3685 19.536L9.27653 19.152L9.54053 14.61H14.2025V15.792H10.1825L10.6925 15.318L10.4825 18.72L10.2365 18.402C10.4645 18.174 10.7365 18 11.0525 17.88C11.3685 17.76 11.6825 17.7 11.9945 17.7C12.5305 17.7 13.0085 17.824 13.4285 18.072C13.8525 18.32 14.1865 18.658 14.4305 19.086C14.6745 19.51 14.7965 19.992 14.7965 20.532C14.7965 21.068 14.6585 21.556 14.3825 21.996C14.1065 22.432 13.7405 22.78 13.2845 23.04C12.8285 23.3 12.3325 23.43 11.7965 23.43ZM19.2426 23.43C18.6546 23.43 18.1346 23.302 17.6826 23.046C17.2306 22.786 16.8746 22.43 16.6146 21.978C16.3586 21.526 16.2306 21.006 16.2306 20.418V17.442C16.2306 16.854 16.3586 16.334 16.6146 15.882C16.8746 15.43 17.2306 15.076 17.6826 14.82C18.1346 14.56 18.6546 14.43 19.2426 14.43C19.8306 14.43 20.3506 14.56 20.8026 14.82C21.2546 15.076 21.6086 15.43 21.8646 15.882C22.1246 16.334 22.2546 16.854 22.2546 17.442V20.418C22.2546 21.006 22.1246 21.526 21.8646 21.978C21.6086 22.43 21.2546 22.786 20.8026 23.046C20.3506 23.302 19.8306 23.43 19.2426 23.43ZM19.2426 22.23C19.5626 22.23 19.8526 22.154 20.1126 22.002C20.3766 21.846 20.5866 21.638 20.7426 21.378C20.8986 21.114 20.9766 20.82 20.9766 20.496V17.352C20.9766 17.032 20.8986 16.742 20.7426 16.482C20.5866 16.218 20.3766 16.01 20.1126 15.858C19.8526 15.702 19.5626 15.624 19.2426 15.624C18.9226 15.624 18.6306 15.702 18.3666 15.858C18.1066 16.01 17.8986 16.218 17.7426 16.482C17.5866 16.742 17.5086 17.032 17.5086 17.352V20.496C17.5086 20.82 17.5866 21.114 17.7426 21.378C17.8986 21.638 18.1066 21.846 18.3666 22.002C18.6306 22.154 18.9226 22.23 19.2426 22.23ZM25.0098 23.25L24.1698 22.41L31.9758 14.61L32.8158 15.456L25.0098 23.25ZM31.0158 23.43C30.6198 23.43 30.2578 23.334 29.9298 23.142C29.6058 22.946 29.3458 22.686 29.1498 22.362C28.9538 22.034 28.8558 21.67 28.8558 21.27C28.8558 20.878 28.9558 20.518 29.1558 20.19C29.3558 19.862 29.6198 19.6 29.9478 19.404C30.2758 19.208 30.6318 19.11 31.0158 19.11C31.4118 19.11 31.7738 19.208 32.1018 19.404C32.4298 19.596 32.6898 19.856 32.8818 20.184C33.0778 20.508 33.1758 20.87 33.1758 21.27C33.1758 21.67 33.0778 22.034 32.8818 22.362C32.6898 22.686 32.4298 22.946 32.1018 23.142C31.7738 23.334 31.4118 23.43 31.0158 23.43ZM31.0158 22.344C31.2118 22.344 31.3898 22.296 31.5498 22.2C31.7138 22.1 31.8438 21.968 31.9398 21.804C32.0398 21.64 32.0898 21.462 32.0898 21.27C32.0898 21.078 32.0398 20.9 31.9398 20.736C31.8438 20.572 31.7138 20.442 31.5498 20.346C31.3898 20.246 31.2118 20.196 31.0158 20.196C30.8238 20.196 30.6458 20.246 30.4818 20.346C30.3218 20.442 30.1918 20.572 30.0918 20.736C29.9958 20.9 29.9478 21.078 29.9478 21.27C29.9478 21.462 29.9958 21.64 30.0918 21.804C30.1918 21.968 30.3218 22.1 30.4818 22.2C30.6458 22.296 30.8238 22.344 31.0158 22.344ZM25.9698 18.75C25.5738 18.75 25.2118 18.654 24.8838 18.462C24.5558 18.266 24.2938 18.006 24.0978 17.682C23.9058 17.354 23.8098 16.99 23.8098 16.59C23.8098 16.198 23.9098 15.838 24.1098 15.51C24.3098 15.182 24.5738 14.92 24.9018 14.724C25.2298 14.528 25.5858 14.43 25.9698 14.43C26.3658 14.43 26.7258 14.528 27.0498 14.724C27.3778 14.916 27.6398 15.176 27.8358 15.504C28.0318 15.828 28.1298 16.19 28.1298 16.59C28.1298 16.99 28.0318 17.354 27.8358 17.682C27.6398 18.006 27.3778 18.266 27.0498 18.462C26.7258 18.654 26.3658 18.75 25.9698 18.75ZM25.9698 17.664C26.1618 17.664 26.3398 17.616 26.5038 17.52C26.6678 17.42 26.7978 17.288 26.8938 17.124C26.9938 16.96 27.0438 16.782 27.0438 16.59C27.0438 16.398 26.9938 16.22 26.8938 16.056C26.7978 15.892 26.6678 15.762 26.5038 15.666C26.3398 15.566 26.1618 15.516 25.9698 15.516C25.7778 15.516 25.5998 15.566 25.4358 15.666C25.2758 15.762 25.1458 15.892 25.0458 16.056C24.9458 16.22 24.8958 16.398 24.8958 16.59C24.8958 16.782 24.9458 16.96 25.0458 17.124C25.1458 17.288 25.2758 17.42 25.4358 17.52C25.5958 17.616 25.7738 17.664 25.9698 17.664Z" fill="white"/>
</svg>
