<svg width="11" height="11" viewBox="0 0 11 11" fill="none" xmlns="http://www.w3.org/2000/svg">
<path d="M3.05176e-05 1.34482C3.05176e-05 1.17522 0.0674059 1.01256 0.187335 0.892627C0.307264 0.772698 0.469923 0.705322 0.639529 0.705322H2.01658C2.16792 0.705413 2.31432 0.759173 2.42976 0.857043C2.54519 0.954913 2.62218 1.09055 2.64702 1.23984L3.12025 4.07601C3.14286 4.21109 3.12151 4.34985 3.05935 4.47188C2.99718 4.59391 2.89748 4.69276 2.77492 4.75388L1.78476 5.24843C2.13974 6.12816 2.66843 6.9273 3.33923 7.5981C4.01003 8.2689 4.80917 8.79758 5.6889 9.15256L6.18398 8.16241C6.24504 8.04005 6.34372 7.94048 6.46553 7.87833C6.58735 7.81618 6.72587 7.79471 6.86078 7.81708L9.69749 8.29031C9.84678 8.31515 9.98241 8.39213 10.0803 8.50757C10.1782 8.623 10.2319 8.76941 10.232 8.92074V10.2978C10.232 10.4674 10.1646 10.6301 10.0447 10.75C9.92477 10.8699 9.76211 10.9373 9.59251 10.9373H8.31351C3.72191 10.9373 3.05176e-05 7.21542 3.05176e-05 2.62382V1.34482Z" fill="#77C75B"/>
</svg>
