<svg width="12" height="12" viewBox="0 0 12 12" fill="none" xmlns="http://www.w3.org/2000/svg">
<path d="M-0.00012207 0.75C-0.00012207 0.551087 0.0788954 0.360322 0.219548 0.21967C0.3602 0.0790175 0.550965 0 0.749878 0H2.36488C2.54237 0.000106372 2.71407 0.0631558 2.84945 0.177937C2.98483 0.292719 3.07511 0.451793 3.10425 0.626875L3.65925 3.95313C3.68577 4.11154 3.66073 4.27428 3.58783 4.4174C3.51492 4.56051 3.39799 4.67645 3.25425 4.74812L2.093 5.32812C2.50932 6.35987 3.12936 7.2971 3.91607 8.08381C4.70278 8.87052 5.64001 9.49056 6.67175 9.90687L7.25238 8.74562C7.32399 8.60212 7.43972 8.48535 7.58258 8.41246C7.72544 8.33957 7.88791 8.31439 8.04613 8.34062L11.373 8.89563C11.5481 8.92476 11.7072 9.01505 11.8219 9.15043C11.9367 9.28581 11.9998 9.45751 11.9999 9.635V11.25C11.9999 11.4489 11.9209 11.6397 11.7802 11.7803C11.6396 11.921 11.4488 12 11.2499 12H9.74988C4.36488 12 -0.00012207 7.635 -0.00012207 2.25V0.75Z" fill="#494462"/>
</svg>
