<svg width="36" height="36" viewBox="0 0 36 36" fill="none" xmlns="http://www.w3.org/2000/svg">
<rect width="36" height="36" rx="18" fill="#77C75B"/>
<path d="M12.8933 23.4286C12.6551 23.4286 12.4467 23.3429 12.268 23.1714C12.0893 23 12 22.8 12 22.5714V13.7143C12 13.4857 12.0893 13.2857 12.268 13.1143C12.4467 12.9429 12.6551 12.8571 12.8933 12.8571H13.861V12H14.8288V12.8571H19.8908V12H20.8586V12.8571H21.8263C22.0645 12.8571 22.273 12.9429 22.4516 13.1143C22.6303 13.2857 22.7196 13.4857 22.7196 13.7143V18.0143H21.8263V16.4286H12.8933V22.5714H17.6427V23.4286H12.8933ZM23.4491 20.3L22.3921 19.2857L22.8238 18.8714C22.9032 18.7952 23.0074 18.7571 23.1365 18.7571C23.2655 18.7571 23.3697 18.7952 23.4491 18.8714L23.8809 19.2857C23.9603 19.3619 24 19.4619 24 19.5857C24 19.7095 23.9603 19.8095 23.8809 19.8857L23.4491 20.3ZM18.536 24V22.9857L21.7519 19.9L22.8089 20.9143L19.5931 24H18.536Z" fill="white"/>
</svg>
