<svg width="17" height="16" viewBox="0 0 17 16" fill="none" xmlns="http://www.w3.org/2000/svg">
<path d="M1.52426 15.2381C1.20664 15.2381 0.928724 15.1238 0.690511 14.8952C0.452298 14.6667 0.333191 14.4 0.333191 14.0952V2.28571C0.333191 1.98095 0.452298 1.71429 0.690511 1.48571C0.928724 1.25714 1.20664 1.14286 1.52426 1.14286H2.81458V0H4.1049V1.14286H10.8543V0H12.1446V1.14286H13.4349C13.7525 1.14286 14.0305 1.25714 14.2687 1.48571C14.5069 1.71429 14.626 1.98095 14.626 2.28571V8.01905H13.4349V5.90476H1.52426V14.0952H7.85676V15.2381H1.52426ZM15.5987 11.0667L14.1893 9.71429L14.765 9.1619C14.8708 9.06032 15.0098 9.00952 15.1818 9.00952C15.3539 9.00952 15.4928 9.06032 15.5987 9.1619L16.1744 9.71429C16.2803 9.81587 16.3332 9.94921 16.3332 10.1143C16.3332 10.2794 16.2803 10.4127 16.1744 10.5143L15.5987 11.0667ZM9.04783 16V14.6476L13.3357 10.5333L14.7451 11.8857L10.4573 16H9.04783Z" fill="white"/>
</svg>
