<svg width="13" height="12" viewBox="0 0 13 12" fill="none" xmlns="http://www.w3.org/2000/svg">
<path d="M8.80808 7.75741C9.53438 6.76632 9.85968 5.53755 9.7189 4.31692C9.57813 3.09629 8.98166 1.97382 8.04883 1.17408C7.11599 0.37434 5.91559 -0.0436913 4.68778 0.00361844C3.45997 0.0509282 2.2953 0.56009 1.42677 1.42924C0.558245 2.29839 0.0499164 3.46343 0.00348526 4.69127C-0.0429459 5.91911 0.375944 7.11921 1.17635 8.05147C1.97676 8.98373 3.09965 9.5794 4.32038 9.7193C5.54111 9.8592 6.76966 9.53302 7.76022 8.80602H7.75947C7.78198 8.83602 7.80598 8.86452 7.83298 8.89228L10.7208 11.7801C10.8614 11.9208 11.0522 11.9999 11.2512 12C11.4502 12.0001 11.641 11.9211 11.7818 11.7805C11.9225 11.6398 12.0016 11.449 12.0017 11.25C12.0018 11.0511 11.9228 10.8602 11.7821 10.7195L8.89434 7.83167C8.86752 7.80452 8.83869 7.77945 8.80808 7.75666V7.75741ZM9.0016 4.87411C9.0016 5.41587 8.89489 5.95233 8.68757 6.45285C8.48025 6.95336 8.17637 7.40815 7.79329 7.79123C7.41021 8.17431 6.95543 8.47819 6.45491 8.68551C5.95439 8.89283 5.41793 8.99954 4.87618 8.99954C4.33442 8.99954 3.79796 8.89283 3.29744 8.68551C2.79692 8.47819 2.34214 8.17431 1.95906 7.79123C1.57598 7.40815 1.2721 6.95336 1.06478 6.45285C0.857458 5.95233 0.750751 5.41587 0.750751 4.87411C0.750751 3.77998 1.18539 2.73066 1.95906 1.957C2.73273 1.18333 3.78205 0.748688 4.87618 0.748688C5.97031 0.748688 7.01963 1.18333 7.79329 1.957C8.56696 2.73066 9.0016 3.77998 9.0016 4.87411Z" fill="#494462"/>
</svg>
