<svg width="8" height="6" viewBox="0 0 8 6" fill="none" xmlns="http://www.w3.org/2000/svg">
<path d="M7.78953 0.888459C7.72324 0.823208 7.64451 0.77144 7.55784 0.736119C7.47116 0.700798 7.37825 0.682617 7.28441 0.682617C7.19058 0.682617 7.09766 0.700798 7.01099 0.736119C6.92431 0.77144 6.84558 0.823208 6.7793 0.888459L3.99938 3.61946L1.21945 0.888458C1.08549 0.756851 0.903795 0.682915 0.71434 0.682915C0.524886 0.682915 0.343189 0.756851 0.209224 0.888458C0.0752597 1.02007 4.54284e-07 1.19856 4.46149e-07 1.38468C4.38013e-07 1.5708 0.0752596 1.7493 0.209224 1.88091L3.49784 5.11165C3.56413 5.1769 3.64286 5.22867 3.72953 5.26399C3.81621 5.29931 3.90912 5.31749 4.00296 5.31749C4.09679 5.31749 4.18971 5.29931 4.27638 5.26399C4.36306 5.22867 4.44179 5.1769 4.50807 5.11165L7.79669 1.88091C8.06895 1.61344 8.06895 1.16297 7.78953 0.888459Z" fill="#494462"/>
</svg>
