<svg width="23" height="17" viewBox="0 0 23 17" fill="none" xmlns="http://www.w3.org/2000/svg">
<path d="M4.11641 16.0046C3.14139 15.0197 2.36796 13.8505 1.84029 12.5636C1.31261 11.2768 1.04102 9.89752 1.04102 8.50464C1.04102 7.11176 1.31261 5.73251 1.84029 4.44566C2.36796 3.15881 3.14139 1.98955 4.11641 1.00464M18.9656 1.00464C19.9406 1.98955 20.7141 3.15881 21.2417 4.44566C21.7694 5.73251 22.041 7.11176 22.041 8.50464C22.041 9.89752 21.7694 11.2768 21.2417 12.5636C20.7141 13.8505 19.9406 15.0197 18.9656 16.0046M7.41572 12.6706C6.32215 11.5656 5.70781 10.0671 5.70781 8.50464C5.70781 6.94215 6.32215 5.44364 7.41572 4.33863M15.6663 4.33863C16.7599 5.44364 17.3742 6.94215 17.3742 8.50464C17.3742 10.0671 16.7599 11.5656 15.6663 12.6706M12.7077 8.50464C12.7077 8.8172 12.5848 9.11695 12.366 9.33797C12.1472 9.55898 11.8504 9.68314 11.541 9.68314C11.2316 9.68314 10.9349 9.55898 10.7161 9.33797C10.4973 9.11695 10.3744 8.8172 10.3744 8.50464C10.3744 8.19208 10.4973 7.89232 10.7161 7.67131C10.9349 7.4503 11.2316 7.32613 11.541 7.32613C11.8504 7.32613 12.1472 7.4503 12.366 7.67131C12.5848 7.89232 12.7077 8.19208 12.7077 8.50464Z" stroke="#73B3FF" stroke-width="1.5" stroke-linecap="round" stroke-linejoin="round"/>
</svg>
