<svg width="11" height="10" viewBox="0 0 11 10" fill="none" xmlns="http://www.w3.org/2000/svg">
<path d="M10.4077 3.77888C10.3394 3.56758 10.152 3.41751 9.93026 3.39753L6.91846 3.12405L5.72751 0.336529C5.6397 0.132239 5.43971 0 5.2175 0C4.9953 0 4.79531 0.132239 4.7075 0.337006L3.51655 3.12405L0.504274 3.39753C0.282947 3.41799 0.0960132 3.56758 0.0273063 3.77888C-0.0414006 3.99018 0.0220518 4.22193 0.18948 4.36802L2.46604 6.36458L1.79474 9.32169C1.74562 9.53911 1.83001 9.76386 2.01041 9.89427C2.10738 9.96433 2.22083 10 2.33524 10C2.43388 10 2.53172 9.97341 2.61954 9.92086L5.2175 8.36815L7.81451 9.92086C8.00455 10.0352 8.24411 10.0248 8.42412 9.89427C8.6046 9.76347 8.68891 9.53864 8.63979 9.32169L7.96849 6.36458L10.245 4.36842C10.4125 4.22193 10.4764 3.99057 10.4077 3.77888Z" fill="#9079F0"/>
</svg>
