<svg width="16" height="14" viewBox="0 0 16 14" fill="none" xmlns="http://www.w3.org/2000/svg">
<path d="M15.0458 5.33855C14.953 5.05169 14.6986 4.84795 14.3976 4.82082L10.3087 4.44954L8.69182 0.665131C8.5726 0.387783 8.30109 0.208252 7.99942 0.208252C7.69775 0.208252 7.42624 0.387783 7.30702 0.66578L5.69017 4.44954L1.60063 4.82082C1.30015 4.8486 1.04637 5.05169 0.953087 5.33855C0.859809 5.62541 0.945954 5.94005 1.17326 6.13838L4.26397 8.84896L3.35259 12.8636C3.2859 13.1588 3.40048 13.4639 3.6454 13.6409C3.77705 13.7361 3.93107 13.7845 4.08639 13.7845C4.22031 13.7845 4.35314 13.7484 4.47236 13.6771L7.99942 11.5691L11.5252 13.6771C11.7832 13.8323 12.1084 13.8181 12.3528 13.6409C12.5978 13.4634 12.7123 13.1581 12.6456 12.8636L11.7342 8.84896L14.8249 6.13892C15.0522 5.94005 15.139 5.62595 15.0458 5.33855Z" fill="#FFCC33"/>
</svg>
