<svg width="36" height="36" viewBox="0 0 36 36" fill="none" xmlns="http://www.w3.org/2000/svg">
<circle cx="18" cy="18" r="18" fill="#73B3FF"/>
<path d="M22.6913 13.2415C22.7662 13.1651 22.8557 13.1043 22.9544 13.0628C23.0531 13.0214 23.1591 13 23.2662 13C23.3732 13 23.4792 13.0214 23.578 13.0628C23.6767 13.1043 23.7661 13.1651 23.8411 13.2415C24.1551 13.5589 24.1595 14.0717 23.852 14.3946L17.3585 22.0709C17.2848 22.1518 17.1953 22.2169 17.0956 22.2621C16.9959 22.3073 16.888 22.3316 16.7785 22.3337C16.669 22.3357 16.5603 22.3154 16.4589 22.274C16.3575 22.2326 16.2657 22.171 16.189 22.0928L12.2377 18.0889C12.0854 17.9335 12 17.7245 12 17.5068C12 17.2892 12.0854 17.0802 12.2377 16.9248C12.3127 16.8483 12.4021 16.7876 12.5009 16.7461C12.5996 16.7046 12.7056 16.6833 12.8126 16.6833C12.9197 16.6833 13.0257 16.7046 13.1244 16.7461C13.2231 16.7876 13.3126 16.8483 13.3875 16.9248L16.7392 20.3215L22.6693 13.2657C22.6761 13.2572 22.6835 13.2491 22.6913 13.2415Z" fill="white"/>
</svg>
