<svg width="14" height="10" viewBox="0 0 14 10" fill="none" xmlns="http://www.w3.org/2000/svg">
<path d="M14 5.125C14 5.125 11.375 0.3125 7 0.3125C2.625 0.3125 0 5.125 0 5.125C0 5.125 2.625 9.9375 7 9.9375C11.375 9.9375 14 5.125 14 5.125ZM1.02637 5.125C1.44945 4.48198 1.93606 3.8831 2.47887 3.33737C3.605 2.2095 5.145 1.1875 7 1.1875C8.855 1.1875 10.3941 2.2095 11.522 3.33737C12.0648 3.8831 12.5514 4.48198 12.9745 5.125C12.9237 5.20113 12.8678 5.28513 12.8039 5.377C12.5108 5.797 12.0776 6.357 11.522 6.91263C10.3941 8.0405 8.85413 9.0625 7 9.0625C5.145 9.0625 3.60588 8.0405 2.478 6.91263C1.93519 6.3669 1.44858 5.76801 1.0255 5.125H1.02637Z" fill="#73B3FF"/>
<path d="M7 2.9375C6.41984 2.9375 5.86344 3.16797 5.4532 3.5782C5.04297 3.98844 4.8125 4.54484 4.8125 5.125C4.8125 5.70516 5.04297 6.26156 5.4532 6.6718C5.86344 7.08203 6.41984 7.3125 7 7.3125C7.58016 7.3125 8.13656 7.08203 8.5468 6.6718C8.95703 6.26156 9.1875 5.70516 9.1875 5.125C9.1875 4.54484 8.95703 3.98844 8.5468 3.5782C8.13656 3.16797 7.58016 2.9375 7 2.9375ZM3.9375 5.125C3.9375 4.31277 4.26016 3.53382 4.83449 2.95949C5.40882 2.38516 6.18777 2.0625 7 2.0625C7.81223 2.0625 8.59118 2.38516 9.16551 2.95949C9.73984 3.53382 10.0625 4.31277 10.0625 5.125C10.0625 5.93723 9.73984 6.71618 9.16551 7.29051C8.59118 7.86484 7.81223 8.1875 7 8.1875C6.18777 8.1875 5.40882 7.86484 4.83449 7.29051C4.26016 6.71618 3.9375 5.93723 3.9375 5.125Z" fill="#73B3FF"/>
</svg>
