<svg width="32" height="32" viewBox="0 0 32 32" fill="none" xmlns="http://www.w3.org/2000/svg">
<path fill-rule="evenodd" clip-rule="evenodd" d="M10.666 2.66663C11.4024 2.66663 11.9993 3.26358 11.9993 3.99996H22.666C26.3479 3.99996 29.3327 6.98473 29.3327 10.6666V22.6666C29.3327 26.3485 26.3479 29.3333 22.666 29.3333H9.33268C5.65078 29.3333 2.66602 26.3485 2.66602 22.6666V10.6666C2.66602 6.98473 5.65078 3.99996 9.33268 3.99996C9.33268 3.26358 9.92964 2.66663 10.666 2.66663ZM9.33268 6.66663C7.12354 6.66663 5.33268 8.45749 5.33268 10.6666V22.6666C5.33268 24.8758 7.12354 26.6666 9.33268 26.6666H22.666C24.8752 26.6666 26.666 24.8758 26.666 22.6666V10.6666C26.666 8.45749 24.8752 6.66663 22.666 6.66663H11.9993V7.99996C11.9993 8.73634 11.4024 9.33329 10.666 9.33329C9.92964 9.33329 9.33268 8.73634 9.33268 7.99996V6.66663Z" fill="#73B3FF"/>
<path fill-rule="evenodd" clip-rule="evenodd" d="M21.3333 2.66663C22.0697 2.66663 22.6667 3.26358 22.6667 3.99996V7.99996C22.6667 8.73634 22.0697 9.33329 21.3333 9.33329C20.597 9.33329 20 8.73634 20 7.99996V3.99996C20 3.26358 20.597 2.66663 21.3333 2.66663Z" fill="#73B3FF"/>
<path fill-rule="evenodd" clip-rule="evenodd" d="M20.9113 13.694C21.4485 14.1976 21.4758 15.0414 20.9721 15.5786L15.9721 20.912C15.4945 21.4215 14.7046 21.4761 14.1614 21.0371L11.1614 18.6129C10.5886 18.15 10.4995 17.3105 10.9623 16.7378C11.4252 16.165 12.2647 16.0759 12.8374 16.5387L14.8739 18.1844L19.0267 13.7548C19.5303 13.2176 20.3741 13.1904 20.9113 13.694Z" fill="#73B3FF"/>
</svg>
