<svg width="32" height="32" viewBox="0 0 32 32" fill="none" xmlns="http://www.w3.org/2000/svg">
<path fill-rule="evenodd" clip-rule="evenodd" d="M2.66602 9.33329C2.66602 5.65139 5.65078 2.66663 9.33268 2.66663H22.666C26.3479 2.66663 29.3327 5.65139 29.3327 9.33329V22.6666C29.3327 26.3485 26.3479 29.3333 22.666 29.3333H9.33268C5.65078 29.3333 2.66602 26.3485 2.66602 22.6666V9.33329ZM9.33268 5.33329C7.12354 5.33329 5.33268 7.12415 5.33268 9.33329V22.6666C5.33268 24.8758 7.12354 26.6666 9.33268 26.6666H22.666C24.8752 26.6666 26.666 24.8758 26.666 22.6666V9.33329C26.666 7.12415 24.8752 5.33329 22.666 5.33329H9.33268Z" fill="#73B3FF"/>
<path fill-rule="evenodd" clip-rule="evenodd" d="M14.666 16C14.666 13.0544 17.0538 10.6666 19.9993 10.6666H26.666C28.1388 10.6666 29.3327 11.8605 29.3327 13.3333V18.6666C29.3327 20.1394 28.1388 21.3333 26.666 21.3333H19.9993C17.0538 21.3333 14.666 18.9455 14.666 16ZM19.9993 13.3333C18.5266 13.3333 17.3327 14.5272 17.3327 16C17.3327 17.4727 18.5266 18.6666 19.9993 18.6666H26.666V13.3333H19.9993Z" fill="#73B3FF"/>
<path fill-rule="evenodd" clip-rule="evenodd" d="M18.666 16C18.666 15.2636 19.263 14.6666 19.9993 14.6666L20.1327 14.6666C20.8691 14.6666 21.466 15.2636 21.466 16C21.466 16.7363 20.8691 17.3333 20.1327 17.3333L19.9993 17.3333C19.263 17.3333 18.666 16.7363 18.666 16Z" fill="#73B3FF"/>
</svg>
