<svg width="32" height="32" viewBox="0 0 32 32" fill="none" xmlns="http://www.w3.org/2000/svg">
<path fill-rule="evenodd" clip-rule="evenodd" d="M10.666 22.6667C10.666 21.9303 11.263 21.3334 11.9993 21.3334H19.9993C20.7357 21.3334 21.3327 21.9303 21.3327 22.6667C21.3327 23.4031 20.7357 24 19.9993 24H11.9993C11.263 24 10.666 23.4031 10.666 22.6667Z" fill="#73B3FF"/>
<path fill-rule="evenodd" clip-rule="evenodd" d="M10.666 17.3333C10.666 16.597 11.263 16 11.9993 16H19.9993C20.7357 16 21.3327 16.597 21.3327 17.3333C21.3327 18.0697 20.7357 18.6667 19.9993 18.6667H11.9993C11.263 18.6667 10.666 18.0697 10.666 17.3333Z" fill="#73B3FF"/>
<path fill-rule="evenodd" clip-rule="evenodd" d="M10.666 12C10.666 11.2636 11.263 10.6666 11.9993 10.6666H13.3327C14.0691 10.6666 14.666 11.2636 14.666 12C14.666 12.7363 14.0691 13.3333 13.3327 13.3333H11.9993C11.263 13.3333 10.666 12.7363 10.666 12Z" fill="#73B3FF"/>
<path fill-rule="evenodd" clip-rule="evenodd" d="M10.6673 5.33329C9.19456 5.33329 8.00065 6.5272 8.00065 7.99996V24C8.00065 25.4727 9.19456 26.6666 10.6673 26.6666H21.334C22.8067 26.6666 24.0007 25.4727 24.0007 24V11.7712C24.0007 11.4176 23.8602 11.0784 23.6101 10.8284L18.5056 5.72382C18.2555 5.47377 17.9164 5.33329 17.5627 5.33329H10.6673ZM5.33398 7.99996C5.33398 5.05444 7.7218 2.66663 10.6673 2.66663H17.5627C18.6236 2.66663 19.641 3.08805 20.3912 3.8382L25.4957 8.94277C26.2459 9.69291 26.6673 10.7103 26.6673 11.7712V24C26.6673 26.9455 24.2795 29.3333 21.334 29.3333H10.6673C7.7218 29.3333 5.33398 26.9455 5.33398 24V7.99996Z" fill="#73B3FF"/>
<path fill-rule="evenodd" clip-rule="evenodd" d="M18.6667 4V6.66667C18.6667 8.87581 20.4575 10.6667 22.6667 10.6667H25.3333V13.3333H22.6667C18.9848 13.3333 16 10.3486 16 6.66667V4H18.6667Z" fill="#73B3FF"/>
</svg>
